<svg data-v-423bf9ae="" xmlns="http://www.w3.org/2000/svg" viewBox="0 0 268.75737651540396 60" class="font"><!----><!----><!----><g data-v-423bf9ae="" id="4ddc902a-50a9-46a9-b672-501cfc735f4a" fill="white" transform="matrix(4.437869672226663,0,0,4.437869672226663,-3.505913456190939,-12.603550546288893)"><path d="M9.59 7.98L9.59 7.98L9.59 7.98Q9.59 9.14 9.30 10.09L9.30 10.09L9.30 10.09Q9.02 11.04 8.46 11.72L8.46 11.72L8.46 11.72Q7.90 12.39 7.08 12.76L7.08 12.76L7.08 12.76Q6.25 13.13 5.20 13.13L5.20 13.13L5.20 13.13Q4.08 13.13 3.25 12.76L3.25 12.76L3.25 12.76Q2.43 12.39 1.88 11.72L1.88 11.72L1.88 11.72Q1.33 11.04 1.06 10.09L1.06 10.09L1.06 10.09Q0.79 9.13 0.79 7.97L0.79 7.97L0.79 7.97Q0.79 6.81 1.06 5.86L1.06 5.86L1.06 5.86Q1.33 4.92 1.88 4.25L1.88 4.25L1.88 4.25Q2.43 3.58 3.26 3.21L3.26 3.21L3.26 3.21Q4.09 2.84 5.21 2.84L5.21 2.84L5.21 2.84Q6.27 2.84 7.08 3.21L7.08 3.21L7.08 3.21Q7.90 3.58 8.46 4.25L8.46 4.25L8.46 4.25Q9.02 4.92 9.30 5.87L9.30 5.87L9.30 5.87Q9.59 6.82 9.59 7.98ZM2.34 7.98L2.34 7.98L2.34 7.98Q2.34 9.02 2.49 9.84L2.49 9.84L2.49 9.84Q2.65 10.66 2.99 11.22L2.99 11.22L2.99 11.22Q3.33 11.79 3.87 12.08L3.87 12.08L3.87 12.08Q4.42 12.38 5.20 12.38L5.20 12.38L5.20 12.38Q5.97 12.38 6.52 12.08L6.52 12.08L6.52 12.08Q7.06 11.79 7.40 11.22L7.40 11.22L7.40 11.22Q7.74 10.66 7.89 9.84L7.89 9.84L7.89 9.84Q8.04 9.02 8.04 7.98L8.04 7.98L8.04 7.98Q8.04 6.95 7.89 6.13L7.89 6.13L7.89 6.13Q7.74 5.31 7.40 4.75L7.40 4.75L7.40 4.75Q7.06 4.19 6.52 3.90L6.52 3.90L6.52 3.90Q5.99 3.60 5.21 3.60L5.21 3.60L5.21 3.60Q4.43 3.60 3.88 3.90L3.88 3.90L3.88 3.90Q3.34 4.19 2.99 4.75L2.99 4.75L2.99 4.75Q2.65 5.31 2.49 6.13L2.49 6.13L2.49 6.13Q2.34 6.95 2.34 7.98ZM15.12 6.25L15.12 6.25L15.12 6.25Q14.57 6.25 14.21 6.43L14.21 6.43L14.21 6.43Q13.84 6.61 13.62 6.98L13.62 6.98L13.62 6.98Q13.41 7.35 13.31 7.91L13.31 7.91L13.31 7.91Q13.22 8.47 13.22 9.23L13.22 9.23L13.22 9.23Q13.22 9.96 13.31 10.52L13.31 10.52L13.31 10.52Q13.41 11.08 13.63 11.46L13.63 11.46L13.63 11.46Q13.85 11.85 14.22 12.04L14.22 12.04L14.22 12.04Q14.58 12.24 15.13 12.24L15.13 12.24L15.13 12.24Q15.60 12.24 15.92 12.04L15.92 12.04L15.92 12.04Q16.25 11.85 16.46 11.46L16.46 11.46L16.46 11.46Q16.67 11.08 16.76 10.52L16.76 10.52L16.76 10.52Q16.86 9.95 16.86 9.21L16.86 9.21L16.86 9.21Q16.86 8.47 16.76 7.91L16.76 7.91L16.76 7.91Q16.67 7.36 16.46 6.99L16.46 6.99L16.46 6.99Q16.25 6.62 15.92 6.43L15.92 6.43L15.92 6.43Q15.59 6.25 15.12 6.25ZM18.22 9.23L18.22 9.23L18.22 9.23Q18.22 10.24 18.03 10.98L18.03 10.98L18.03 10.98Q17.84 11.72 17.48 12.20L17.48 12.20L17.48 12.20Q17.12 12.67 16.58 12.90L16.58 12.90L16.58 12.90Q16.05 13.13 15.36 13.13L15.36 13.13L15.36 13.13Q14.96 13.13 14.63 13.04L14.63 13.04L14.63 13.04Q14.30 12.95 14.04 12.79L14.04 12.79L14.04 12.79Q13.77 12.63 13.57 12.40L13.57 12.40L13.57 12.40Q13.37 12.17 13.22 11.90L13.22 11.90L13.17 11.90L13.17 11.90Q13.18 12.26 13.19 12.58L13.19 12.58L13.19 12.58Q13.20 12.71 13.20 12.85L13.20 12.85L13.20 12.85Q13.21 12.99 13.21 13.11L13.21 13.11L13.21 13.11Q13.21 13.23 13.22 13.33L13.22 13.33L13.22 13.33Q13.22 13.43 13.22 13.49L13.22 13.49L13.22 14.83L13.22 14.83Q13.22 15.13 13.31 15.32L13.31 15.32L13.31 15.32Q13.41 15.51 13.56 15.61L13.56 15.61L13.56 15.61Q13.72 15.71 13.93 15.74L13.93 15.74L13.93 15.74Q14.14 15.77 14.37 15.77L14.37 15.77L14.41 15.77L14.41 16.36L10.64 16.36L10.64 15.77L10.75 15.77L10.75 15.77Q10.99 15.77 11.20 15.74L11.20 15.74L11.20 15.74Q11.41 15.70 11.56 15.60L11.56 15.60L11.56 15.60Q11.72 15.49 11.81 15.29L11.81 15.29L11.81 15.29Q11.90 15.09 11.90 14.76L11.90 14.76L11.90 7.03L11.90 7.03Q11.90 6.73 11.81 6.54L11.81 6.54L11.81 6.54Q11.72 6.35 11.56 6.25L11.56 6.25L11.56 6.25Q11.40 6.15 11.19 6.11L11.19 6.11L11.19 6.11Q10.99 6.08 10.75 6.08L10.75 6.08L10.58 6.08L10.58 5.49L13.02 5.49L13.17 6.75L13.22 6.75L13.22 6.75Q13.38 6.43 13.58 6.17L13.58 6.17L13.58 6.17Q13.77 5.91 14.03 5.73L14.03 5.73L14.03 5.73Q14.29 5.55 14.62 5.45L14.62 5.45L14.62 5.45Q14.95 5.35 15.36 5.35L15.36 5.35L15.36 5.35Q16.05 5.35 16.58 5.58L16.58 5.58L16.58 5.58Q17.12 5.81 17.48 6.29L17.48 6.29L17.48 6.29Q17.84 6.76 18.03 7.49L18.03 7.49L18.03 7.49Q18.22 8.22 18.22 9.23ZM22.83 6.10L22.83 6.10L22.83 6.10Q22.05 6.10 21.63 6.74L21.63 6.74L21.63 6.74Q21.21 7.37 21.14 8.59L21.14 8.59L24.36 8.59L24.36 8.59Q24.36 8.03 24.27 7.57L24.27 7.57L24.27 7.57Q24.19 7.12 24.01 6.79L24.01 6.79L24.01 6.79Q23.84 6.46 23.55 6.28L23.55 6.28L23.55 6.28Q23.26 6.10 22.83 6.10ZM23.00 13.13L23.00 13.13L23.00 13.13Q22.24 13.13 21.64 12.88L21.64 12.88L21.64 12.88Q21.03 12.62 20.62 12.13L20.62 12.13L20.62 12.13Q20.20 11.63 19.98 10.92L19.98 10.92L19.98 10.92Q19.76 10.21 19.76 9.30L19.76 9.30L19.76 9.30Q19.76 7.33 20.56 6.34L20.56 6.34L20.56 6.34Q21.37 5.35 22.86 5.35L22.86 5.35L22.86 5.35Q23.54 5.35 24.08 5.56L24.08 5.56L24.08 5.56Q24.62 5.78 24.99 6.20L24.99 6.20L24.99 6.20Q25.37 6.62 25.57 7.24L25.57 7.24L25.57 7.24Q25.77 7.87 25.77 8.70L25.77 8.70L25.77 9.34L21.11 9.34L21.11 9.34Q21.12 10.10 21.26 10.65L21.26 10.65L21.26 10.65Q21.40 11.20 21.67 11.56L21.67 11.56L21.67 11.56Q21.93 11.92 22.31 12.08L22.31 12.08L22.31 12.08Q22.70 12.25 23.19 12.25L23.19 12.25L23.19 12.25Q23.56 12.25 23.87 12.17L23.87 12.17L23.87 12.17Q24.18 12.09 24.43 11.95L24.43 11.95L24.43 11.95Q24.68 11.81 24.88 11.64L24.88 11.64L24.88 11.64Q25.07 11.46 25.20 11.27L25.20 11.27L25.20 11.27Q25.29 11.31 25.38 11.44L25.38 11.44L25.38 11.44Q25.46 11.57 25.46 11.75L25.46 11.75L25.46 11.75Q25.46 11.96 25.31 12.21L25.31 12.21L25.31 12.21Q25.16 12.45 24.86 12.65L24.86 12.65L24.86 12.65Q24.55 12.86 24.09 13.00L24.09 13.00L24.09 13.00Q23.63 13.13 23.00 13.13ZM30.59 12.41L30.63 12.41L30.63 13.00L26.87 13.00L26.87 12.41L26.98 12.41L26.98 12.41Q27.22 12.41 27.43 12.37L27.43 12.37L27.43 12.37Q27.64 12.34 27.79 12.23L27.79 12.23L27.79 12.23Q27.95 12.13 28.04 11.93L28.04 11.93L28.04 11.93Q28.13 11.73 28.13 11.40L28.13 11.40L28.13 7.03L28.13 7.03Q28.13 6.73 28.04 6.54L28.04 6.54L28.04 6.54Q27.95 6.35 27.79 6.25L27.79 6.25L27.79 6.25Q27.63 6.15 27.42 6.11L27.42 6.11L27.42 6.11Q27.21 6.08 26.98 6.08L26.98 6.08L26.94 6.08L26.94 5.49L29.20 5.49L29.39 6.62L29.46 6.62L29.46 6.62Q29.67 6.23 29.92 5.98L29.92 5.98L29.92 5.98Q30.16 5.74 30.43 5.60L30.43 5.60L30.43 5.60Q30.70 5.46 31.00 5.40L31.00 5.40L31.00 5.40Q31.31 5.35 31.64 5.35L31.64 5.35L31.64 5.35Q32.20 5.35 32.63 5.51L32.63 5.51L32.63 5.51Q33.07 5.67 33.37 6.01L33.37 6.01L33.37 6.01Q33.67 6.34 33.83 6.86L33.83 6.86L33.83 6.86Q34.00 7.38 34.00 8.09L34.00 8.09L34.00 11.40L34.00 11.40Q34.00 11.73 34.07 11.93L34.07 11.93L34.07 11.93Q34.15 12.13 34.30 12.23L34.30 12.23L34.30 12.23Q34.44 12.34 34.64 12.37L34.64 12.37L34.64 12.37Q34.84 12.41 35.07 12.41L35.07 12.41L35.12 12.41L35.12 13.00L32.68 13.00L32.68 8.16L32.68 8.16Q32.68 7.70 32.59 7.35L32.59 7.35L32.59 7.35Q32.51 6.99 32.33 6.75L32.33 6.75L32.33 6.75Q32.15 6.50 31.86 6.37L31.86 6.37L31.86 6.37Q31.56 6.25 31.14 6.25L31.14 6.25L31.14 6.25Q30.66 6.25 30.33 6.43L30.33 6.43L30.33 6.43Q30.01 6.62 29.81 6.93L29.81 6.93L29.81 6.93Q29.61 7.25 29.53 7.66L29.53 7.66L29.53 7.66Q29.44 8.07 29.44 8.52L29.44 8.52L29.44 11.47L29.44 11.47Q29.44 11.78 29.53 11.97L29.53 11.97L29.53 11.97Q29.63 12.15 29.78 12.25L29.78 12.25L29.78 12.25Q29.94 12.35 30.15 12.38L30.15 12.38L30.15 12.38Q30.36 12.41 30.59 12.41L30.59 12.41ZM38.99 16.36L38.99 15.70L39.12 15.70L39.12 15.70Q39.57 15.70 39.92 15.57L39.92 15.57L39.92 15.57Q40.27 15.44 40.51 15.15L40.51 15.15L40.51 15.15Q40.75 14.85 40.88 14.35L40.88 14.35L40.88 14.35Q41.00 13.86 41.00 13.12L41.00 13.12L41.00 4.54L41.00 4.54Q41.00 4.23 40.91 4.04L40.91 4.04L40.91 4.04Q40.82 3.86 40.66 3.75L40.66 3.75L40.66 3.75Q40.50 3.65 40.29 3.62L40.29 3.62L40.29 3.62Q40.09 3.59 39.85 3.59L39.85 3.59L39.68 3.59L39.68 3.00L43.75 3.00L43.75 3.59L43.57 3.59L43.57 3.59Q43.33 3.59 43.12 3.62L43.12 3.62L43.12 3.62Q42.91 3.66 42.76 3.76L42.76 3.76L42.76 3.76Q42.60 3.87 42.51 4.07L42.51 4.07L42.51 4.07Q42.42 4.27 42.42 4.59L42.42 4.59L42.42 13.10L42.42 13.10Q42.42 14.05 42.17 14.67L42.17 14.67L42.17 14.67Q41.92 15.30 41.49 15.67L41.49 15.67L41.49 15.67Q41.06 16.04 40.48 16.20L40.48 16.20L40.48 16.20Q39.89 16.36 39.22 16.36L39.22 16.36L38.99 16.36ZM47.60 13.13L47.60 13.13L47.60 13.13Q46.92 13.13 46.39 12.99L46.39 12.99L46.39 12.99Q45.87 12.84 45.52 12.59L45.52 12.59L45.52 12.59Q45.17 12.33 44.99 11.97L44.99 11.97L44.99 11.97Q44.81 11.60 44.81 11.16L44.81 11.16L44.81 11.16Q44.81 10.74 45.07 10.48L45.07 10.48L45.07 10.48Q45.34 10.22 45.82 10.22L45.82 10.22L45.82 10.22Q45.84 10.66 45.95 11.06L45.95 11.06L45.95 11.06Q46.07 11.46 46.29 11.77L46.29 11.77L46.29 11.77Q46.52 12.08 46.87 12.26L46.87 12.26L46.87 12.26Q47.22 12.45 47.71 12.45L47.71 12.45L47.71 12.45Q48.65 12.45 49.18 11.99L49.18 11.99L49.18 11.99Q49.71 11.54 49.71 10.68L49.71 10.68L49.71 10.68Q49.71 10.30 49.60 10.01L49.60 10.01L49.60 10.01Q49.49 9.71 49.24 9.46L49.24 9.46L49.24 9.46Q48.99 9.21 48.57 8.99L48.57 8.99L48.57 8.99Q48.16 8.76 47.54 8.50L47.54 8.50L47.54 8.50Q46.89 8.24 46.41 7.93L46.41 7.93L46.41 7.93Q45.92 7.63 45.60 7.26L45.60 7.26L45.60 7.26Q45.28 6.88 45.12 6.43L45.12 6.43L45.12 6.43Q44.97 5.97 44.97 5.39L44.97 5.39L44.97 5.39Q44.97 4.79 45.20 4.32L45.20 4.32L45.20 4.32Q45.42 3.85 45.83 3.52L45.83 3.52L45.83 3.52Q46.25 3.20 46.81 3.03L46.81 3.03L46.81 3.03Q47.37 2.86 48.03 2.86L48.03 2.86L48.03 2.86Q48.66 2.86 49.14 2.99L49.14 2.99L49.14 2.99Q49.63 3.12 49.96 3.34L49.96 3.34L49.96 3.34Q50.30 3.55 50.47 3.84L50.47 3.84L50.47 3.84Q50.65 4.12 50.65 4.43L50.65 4.43L50.65 4.43Q50.65 4.88 50.35 5.11L50.35 5.11L50.35 5.11Q50.05 5.34 49.55 5.34L49.55 5.34L49.55 5.34Q49.55 5.01 49.47 4.69L49.47 4.69L49.47 4.69Q49.39 4.38 49.21 4.13L49.21 4.13L49.21 4.13Q49.02 3.88 48.72 3.72L48.72 3.72L48.72 3.72Q48.42 3.56 47.97 3.56L47.97 3.56L47.97 3.56Q47.57 3.56 47.25 3.67L47.25 3.67L47.25 3.67Q46.94 3.79 46.72 4.00L46.72 4.00L46.72 4.00Q46.50 4.20 46.38 4.50L46.38 4.50L46.38 4.50Q46.27 4.79 46.27 5.15L46.27 5.15L46.27 5.15Q46.27 5.57 46.38 5.89L46.38 5.89L46.38 5.89Q46.48 6.21 46.74 6.46L46.74 6.46L46.74 6.46Q47.00 6.72 47.41 6.95L47.41 6.95L47.41 6.95Q47.83 7.18 48.44 7.42L48.44 7.42L48.44 7.42Q49.05 7.68 49.54 7.96L49.54 7.96L49.54 7.96Q50.02 8.24 50.35 8.58L50.35 8.58L50.35 8.58Q50.69 8.93 50.87 9.35L50.87 9.35L50.87 9.35Q51.04 9.78 51.04 10.32L51.04 10.32L51.04 10.32Q51.04 10.99 50.80 11.51L50.80 11.51L50.80 11.51Q50.56 12.03 50.11 12.39L50.11 12.39L50.11 12.39Q49.66 12.76 49.02 12.94L49.02 12.94L49.02 12.94Q48.38 13.13 47.60 13.13ZM57.98 9.65L54.30 9.65L53.77 11.12L53.77 11.12Q53.71 11.29 53.68 11.45L53.68 11.45L53.68 11.45Q53.64 11.61 53.64 11.72L53.64 11.72L53.64 11.72Q53.64 12.08 53.87 12.24L53.87 12.24L53.87 12.24Q54.10 12.41 54.57 12.41L54.57 12.41L54.89 12.41L54.89 13.00L51.47 13.00L51.47 12.41L51.74 12.41L51.74 12.41Q51.95 12.41 52.09 12.36L52.09 12.36L52.09 12.36Q52.23 12.32 52.35 12.20L52.35 12.20L52.35 12.20Q52.47 12.07 52.57 11.86L52.57 11.86L52.57 11.86Q52.68 11.65 52.81 11.31L52.81 11.31L55.91 3.00L57.00 3.00L60.17 11.66L60.17 11.66Q60.25 11.88 60.34 12.02L60.34 12.02L60.34 12.02Q60.42 12.17 60.54 12.25L60.54 12.25L60.54 12.25Q60.66 12.34 60.81 12.37L60.81 12.37L60.81 12.37Q60.96 12.41 61.16 12.41L61.16 12.41L61.35 12.41L61.35 13.00L57.50 13.00L57.50 12.41L57.82 12.41L57.82 12.41Q58.66 12.41 58.66 11.74L58.66 11.74L58.66 11.74Q58.66 11.62 58.63 11.50L58.63 11.50L58.63 11.50Q58.60 11.38 58.54 11.22L58.54 11.22L57.98 9.65ZM57.73 8.95L56.86 6.50L56.86 6.50Q56.64 5.88 56.46 5.34L56.46 5.34L56.46 5.34Q56.28 4.79 56.16 4.29L56.16 4.29L56.16 4.29Q56.12 4.54 56.05 4.77L56.05 4.77L56.05 4.77Q55.99 5.01 55.91 5.26L55.91 5.26L55.91 5.26Q55.84 5.50 55.74 5.77L55.74 5.77L55.74 5.77Q55.64 6.04 55.52 6.37L55.52 6.37L54.57 8.95L57.73 8.95Z"></path></g><!----><!----></svg>